<?xml version="1.0" encoding="UTF-8"?>
<svg width="400" height="400" viewBox="0 0 400 400" fill="none" xmlns="http://www.w3.org/2000/svg">
  <!-- Doctor figure -->
  <g id="doctor">
    <!-- Head -->
    <circle cx="200" cy="100" r="40" fill="#FDBCB4"/>
    
    <!-- Hair -->
    <path d="M160 80 C160 60, 180 50, 200 50 C220 50, 240 60, 240 80 L240 90 C240 70, 220 60, 200 60 C180 60, 160 70, 160 90 Z" fill="#4A4A4A"/>
    
    <!-- Eyes -->
    <circle cx="185" cy="95" r="3" fill="#000"/>
    <circle cx="215" cy="95" r="3" fill="#000"/>
    
    <!-- Nose -->
    <circle cx="200" cy="105" r="1.5" fill="#E8A598"/>
    
    <!-- Mouth -->
    <path d="M195 115 Q200 120 205 115" stroke="#000" stroke-width="1.5" fill="none"/>
    
    <!-- Body/White coat -->
    <rect x="160" y="140" width="80" height="120" fill="#FFFFFF" rx="10"/>
    
    <!-- Coat collar -->
    <path d="M160 140 L180 155 L200 145 L220 155 L240 140" fill="#FFFFFF" stroke="#E5E5E5" stroke-width="2"/>
    
    <!-- Coat buttons -->
    <circle cx="200" cy="165" r="3" fill="#0284C7"/>
    <circle cx="200" cy="190" r="3" fill="#0284C7"/>
    <circle cx="200" cy="215" r="3" fill="#0284C7"/>
    
    <!-- Arms -->
    <rect x="140" y="160" width="20" height="60" fill="#FDBCB4" rx="10"/>
    <rect x="240" y="160" width="20" height="60" fill="#FDBCB4" rx="10"/>
    
    <!-- Hands -->
    <circle cx="150" cy="230" r="12" fill="#FDBCB4"/>
    <circle cx="250" cy="230" r="12" fill="#FDBCB4"/>
    
    <!-- Legs -->
    <rect x="175" y="260" width="15" height="80" fill="#2D3748"/>
    <rect x="210" y="260" width="15" height="80" fill="#2D3748"/>
    
    <!-- Shoes -->
    <ellipse cx="182.5" cy="350" rx="12" ry="8" fill="#000"/>
    <ellipse cx="217.5" cy="350" rx="12" ry="8" fill="#000"/>
  </g>
  
  <!-- Stethoscope -->
  <g id="stethoscope">
    <!-- Ear pieces -->
    <circle cx="175" cy="130" r="4" fill="#0284C7"/>
    <circle cx="225" cy="130" r="4" fill="#0284C7"/>
    
    <!-- Tubing -->
    <path d="M175 130 Q160 140 160 160 Q160 180 180 190 Q200 200 220 190 Q240 180 240 160 Q240 140 225 130" 
          stroke="#0284C7" stroke-width="3" fill="none"/>
    
    <!-- Chest piece -->
    <circle cx="200" cy="200" r="8" fill="#0284C7"/>
    <circle cx="200" cy="200" r="6" fill="#0369A1"/>
    
    <!-- Connecting tubes -->
    <path d="M175 130 Q170 125 165 125" stroke="#0284C7" stroke-width="2" fill="none"/>
    <path d="M225 130 Q230 125 235 125" stroke="#0284C7" stroke-width="2" fill="none"/>
  </g>
  
  <!-- Medical cross on coat pocket -->
  <g id="medical-cross">
    <rect x="190" y="240" width="20" height="4" fill="#DC2626"/>
    <rect x="198" y="232" width="4" height="20" fill="#DC2626"/>
  </g>
  
  <!-- Background medical symbols -->
  <g id="medical-background" opacity="0.1">
    <!-- Heartbeat line -->
    <path d="M50 350 L70 350 L80 330 L90 370 L100 310 L110 380 L120 350 L350 350" 
          stroke="#0284C7" stroke-width="2" fill="none"/>
    
    <!-- Medical crosses -->
    <g transform="translate(50, 50)">
      <rect x="0" y="8" width="16" height="4" fill="#0284C7"/>
      <rect x="6" y="2" width="4" height="16" fill="#0284C7"/>
    </g>
    
    <g transform="translate(320, 80)">
      <rect x="0" y="8" width="16" height="4" fill="#14B8A6"/>
      <rect x="6" y="2" width="4" height="16" fill="#14B8A6"/>
    </g>
    
    <g transform="translate(70, 280)">
      <rect x="0" y="8" width="16" height="4" fill="#EF4444"/>
      <rect x="6" y="2" width="4" height="16" fill="#EF4444"/>
    </g>
  </g>
</svg>